PathFileType	4	(X/Y/Z)	Walk4.trc
DataRate	CameraRate	NumFrames	NumMarkers	Units	OrigDataRate	OrigDataStartFrame	OrigNumFrames
200.000000	200.000000	4	59	mm	200.000000	454	583
Frame#	Times		LFHD		RFHD		CLAV		STRN		LASI		RASI		RACR1		RUA1		RElbow		RFA1		RWRR		RWRU		RCAR		LACR1		LUA1		LElbow		LFA1		LWRR		LWRU		LCAR		RTH3		RTH2		RTB1		RTB2		LTH1		LTH3		LTH2		LLFC		LMFC		LTB1		LTB3		LTB2		LTB4		LMT1		LToe		LMT5		RTB4		RTB3		RMFC		LTH4		RTH4		RMT1		RElbowM		RLFC		LBHD		RToe		RMMAL		RTH1		RCAL		RBack		LLMAL		RPSI		C7		LElbowM		T10		LPSI		LMMAL		RBHD		LCAL
			X1	Y1	Z1	X2	Y2	Z2	X3	Y3	Z3	X4	Y4	Z4	X5	Y5	Z5	X6	Y6	Z6	X7	Y7	Z7	X8	Y8	Z8	X9	Y9	Z9	X10	Y10	Z10	X11	Y11	Z11	X12	Y12	Z12	X13	Y13	Z13	X14	Y14	Z14	X15	Y15	Z15	X16	Y16	Z16	X17	Y17	Z17	X18	Y18	Z18	X19	Y19	Z19	X20	Y20	Z20	X21	Y21	Z21	X22	Y22	Z22	X23	Y23	Z23	X24	Y24	Z24	X25	Y25	Z25	X26	Y26	Z26	X27	Y27	Z27	X28	Y28	Z28	X29	Y29	Z29	X30	Y30	Z30	X31	Y31	Z31	X32	Y32	Z32	X33	Y33	Z33	X34	Y34	Z34	X35	Y35	Z35	X36	Y36	Z36	X37	Y37	Z37	X38	Y38	Z38	X39	Y39	Z39	X40	Y40	Z40	X41	Y41	Z41	X42	Y42	Z42	X43	Y43	Z43	X44	Y44	Z44	X45	Y45	Z45	X46	Y46	Z46	X47	Y47	Z47	X48	Y48	Z48	X49	Y49	Z49	X50	Y50	Z50	X51	Y51	Z51	X52	Y52	Z52	X53	Y53	Z53	X54	Y54	Z54	X55	Y55	Z55	X56	Y56	Z56	X57	Y57	Z57	X58	Y58	Z58	X59	Y59	Z59

454	2.27	745.22	1652.7	-12.32	744.29	1655.5	86.777	745.88	1394.4	46.649	811.1	1235.4	43.812	702.06	980.8	-134.15	697.22	983.35	231.3	625.6	1473.9	216.92	615.5	1305.7	336.82	654.23	1165.6	395.4	728.46	1032.8	404.23	781.74	927.68	331.42	777.94	930.83	413.48	831.23	858.14	378.13	632.65	1465.4	-136.41	563.46	1305.5	-224.72	511.07	1149.1	-272.54	502.78	1008.7	-284.99	532.37	877.65	-229.3	478.69	869.75	-281.96	516.05	787.7	-257.55	563.08	598.13	211.64	626.09	681.5	214.09	555.16	356.96	111.21	505.76	275.87	157.38	700.03	756.15	-164.94	771.54	601.6	-138.25	785.27	705.84	-132.94	781.51	521.61	-131.42	811.91	522.73	24.258	888.46	433.81	-81.362	930.67	269.65	-53.309	878.98	335.78	-115.87	912.92	354.13	-66.745	1064.7	110.77	-55.145	1098.2	130.93	-100.87	1011.1	65.44	-115.67	521.75	277.38	98.143	490.32	198.26	85.128	518.48	498	40.632	735.04	679.57	-154.04	569.18	681.92	228.39	531.31	26.367	52.199	617.43	1081.6	299.44	528.17	483.57	194.87	594.69	1574.9	-24.526	579.66	28.368	86.681	409.78	84.321	19.241	573.94	766.87	246.23	311.36	55.071	57.819	487.78	1351.2	155.83	900.07	88.519	-46.851	441.16	1031.9	68.956	553.72	1475.8	44.974	443.29	1108.5	-174.64	491.81	1160.7	33.868	456.55	1026	-13.51	933.03	111.08	32.601	608.6	1584	124.55	875.4	43.155	16.732
455	2.275	751.69	1651.3	-12.982	750.7	1654.3	86.113	752.35	1393	46.439	817.47	1233.9	43.904	708.64	979.12	-134.24	702.44	982.17	231.78	631.92	1472.7	216.44	622.23	1304.6	336.5	661.41	1164.7	395.18	736.2	1032.3	403.9	789.86	927.52	331	786.22	930.65	413.08	839.83	858.26	377.61	639.49	1464.1	-136.82	569.64	1304.5	-224.96	516.51	1148.2	-272.5	507.57	1007.8	-284.76	536.57	876.68	-228.88	482.79	868.93	-281.47	519.57	786.66	-256.8	566.29	597.4	211.63	629.86	680.39	214.31	557.24	356.12	111.28	507.15	275.36	157.33	706.34	754.37	-164.31	777.62	599.86	-136.91	791.51	704.08	-132.1	787.87	519.86	-130.07	817.92	521.35	25.682	896.16	433.66	-80.087	941.27	270.23	-51.963	888.31	335.43	-114.49	922.01	354.38	-65.446	1078.2	114.01	-53.59	1111.4	134.77	-99.25	1025.4	67.449	-114.11	523.3	276.76	98.166	491.37	197.86	85.095	521.84	497.46	40.53	741.23	677.8	-153.03	572.91	681.16	228.44	531.37	26.367	52.241	624.63	1080.6	299.36	530.79	483.01	194.8	601.19	1573.4	-25.222	579.84	28.314	86.857	410.18	84.448	19.053	578.12	766.09	246.23	311.52	55.624	57.451	494.1	1350.1	155.22	913.92	88.541	-45.227	447.23	1030.9	67.987	560.25	1474.6	44.435	448.77	1108	-174.46	498.04	1159.5	33.121	462.94	1024.8	-14.336	946.51	111.79	34.14	614.99	1582.8	123.9	890.09	42.712	18.393
456	2.28	758.19	1649.9	-13.686	757.15	1653.1	85.408	758.86	1391.5	46.201	823.89	1232.4	43.975	715.26	977.42	-134.33	707.74	980.99	232.23	638.26	1471.6	215.92	629.01	1303.6	336.15	668.6	1163.9	394.93	743.93	1031.9	403.55	797.95	927.34	330.55	794.45	930.44	412.65	848.38	858.36	377.07	646.36	1462.7	-137.25	575.86	1303.4	-225.22	522.03	1147.2	-272.47	512.46	1006.9	-284.55	540.88	875.68	-228.48	487.02	868.08	-281	523.2	785.59	-256.09	569.51	596.67	211.61	633.65	679.28	214.53	559.32	355.29	111.35	508.53	274.89	157.27	712.7	752.6	-163.69	783.76	598.14	-135.6	797.8	702.35	-131.25	794.25	518.11	-128.76	823.96	519.96	27.056	903.78	433.42	-78.847	951.57	270.72	-50.628	897.45	335.02	-113.14	930.94	354.55	-64.17	1091.2	117.04	-51.998	1124.1	138.35	-97.58	1039.3	69.313	-112.52	524.85	276.16	98.193	492.43	197.47	85.066	525.2	496.92	40.418	747.47	676.05	-152.03	576.66	680.41	228.48	531.42	26.369	52.284	631.86	1079.6	299.23	533.41	482.47	194.73	607.73	1571.9	-25.943	580.02	28.264	87.033	410.59	84.599	18.865	582.32	765.31	246.24	311.7	56.2	57.081	500.46	1348.9	154.6	927.27	88.545	-43.589	453.35	1029.9	67.013	566.82	1473.3	43.87	454.34	1107.4	-174.3	504.3	1158.3	32.381	469.37	1023.6	-15.163	959.51	112.44	35.691	621.41	1581.5	123.23	904.24	42.298	20.065
457	2.285	764.71	1648.5	-14.431	763.61	1651.8	84.66	765.41	1390.1	45.933	830.34	1231	44.023	721.93	975.69	-134.41	713.11	979.84	232.65	644.65	1470.4	215.37	635.84	1302.6	335.76	675.8	1163.1	394.65	751.63	1031.4	403.18	806	927.14	330.08	802.65	930.23	412.19	856.87	858.44	376.5	653.25	1461.4	-137.71	582.14	1302.3	-225.5	527.62	1146.2	-272.47	517.45	1005.9	-284.36	545.3	874.66	-228.09	491.36	867.2	-280.57	526.97	784.5	-255.41	572.74	595.95	211.6	637.45	678.17	214.74	561.4	354.48	111.42	509.89	274.45	157.22	719.12	750.87	-163.07	789.98	596.46	-134.32	804.15	700.66	-130.4	800.69	516.39	-127.49	830.06	518.58	28.375	911.33	433.09	-77.64	961.58	271.1	-49.304	906.38	334.55	-111.8	939.68	354.61	-62.918	1103.6	119.81	-50.37	1136.2	141.63	-95.866	1052.5	70.989	-110.89	526.41	275.57	98.222	493.48	197.1	85.041	528.57	496.38	40.296	753.79	674.34	-151.05	580.41	679.65	228.52	531.47	26.374	52.325	639.1	1078.5	299.07	536.02	481.94	194.66	614.29	1570.5	-26.692	580.21	28.218	87.209	411.01	84.775	18.676	586.54	764.54	246.24	311.88	56.8	56.711	506.87	1347.7	153.96	940.07	88.508	-41.939	459.53	1028.9	66.04	573.42	1472.1	43.276	459.99	1106.8	-174.17	510.61	1157	31.651	475.85	1022.4	-15.986	971.98	113	37.252	627.86	1580.2	122.51	917.78	41.892	21.748
